<svg height="392pt" viewBox="0 -2 392.04875 392" width="392pt" xmlns="http://www.w3.org/2000/svg"><path d="m6 387.410156c1.613281.003906 3.164062-.648437 4.289062-1.804687l191.5625-195.980469 12.691407 58.601562c.546875 2.515626 2.640625 4.40625 5.199219 4.691407.222656.023437.441406.039062.664062.039062 2.335938-.003906 4.460938-1.359375 5.441406-3.480469l28.253906-60.972656 64.8125 6.28125c2.527344.242188 4.933594-1.128906 6.011719-3.425781s.59375-5.027344-1.210937-6.8125l-47.289063-46.828125 25.921875-62.324219c.984375-2.359375.359375-5.085937-1.550781-6.785156-1.90625-1.703125-4.6875-2.003906-6.917969-.757813l-57.265625 32.023438-48.875-44.589844c-1.894531-1.730468-4.683593-2.0625-6.933593-.828125-2.25 1.238281-3.460938 3.769531-3.019532 6.296875l11.730469 66.753906-56.179687 34.550782c-2.15625 1.328125-3.25 3.863281-2.730469 6.339844.519531 2.480468 2.535156 4.363281 5.042969 4.714843l57.683593 8.058594-191.625 196.046875c-1.6874998 1.726562-2.171875 4.292969-1.238281 6.519531.9375 2.226563 3.117188 3.671875 5.53125 3.671875zm193.273438-251.816406c2.09375-1.289062 3.191406-3.722656 2.765624-6.148438l-9.390624-53.4375 39.074218 35.652344c1.90625 1.742188 4.714844 2.066406 6.96875.804688l45.921875-25.679688-20.8125 50.054688c-.9375 2.25-.417969 4.847656 1.316407 6.566406l38.183593 37.8125-52.273437-5.066406c-2.535156-.25-4.953125 1.132812-6.019532 3.449218l-22.523437 48.601563-11.414063-52.699219c-.53125-2.460937-2.542968-4.324218-5.035156-4.671875l-52.199218-7.292969zm0 0"/><path d="m301.359375 277.085938c2.199219-.003907 4.222656-1.210938 5.273437-3.144532 1.046876-1.9375.949219-4.289062-.25-6.132812l-23.09375-35.445313c-1.164062-1.816406-3.207031-2.867187-5.359374-2.757812-2.148438.113281-4.078126 1.367187-5.046876 3.289062-.972656 1.925781-.835937 4.21875.351563 6.015625l23.09375 35.449219c1.105469 1.699219 3 2.726563 5.03125 2.726563zm0 0"/><path d="m231.625 53.585938c3.3125 0 6-2.6875 6-6v-41.5625c0-3.3125-2.6875-6.0000005-6-6.0000005s-6 2.6875005-6 6.0000005v41.5625c0 3.3125 2.6875 6 6 6zm0 0"/><path d="m331.832031 129.730469c.515625 0 1.027344-.066407 1.527344-.199219l54.164063-14.230469c2.089843-.527343 3.734374-2.140625 4.308593-4.21875s-.011719-4.300781-1.53125-5.832031c-1.519531-1.527344-3.746093-2.121094-5.824219-1.554688l-54.167968 14.230469c-2.917969.761719-4.816406 3.578125-4.433594 6.570313.386719 2.996094 2.9375 5.234375 5.957031 5.234375zm0 0"/><path d="m91.277344 103.46875 40.105468 6.910156c.339844.058594.683594.089844 1.027344.089844 3.117188 0 5.71875-2.386719 5.980469-5.492188.265625-3.109374-1.894531-5.902343-4.96875-6.425781l-40.109375-6.910156c-3.265625-.5625-6.367188 1.628906-6.929688 4.894531s1.628907 6.371094 4.894532 6.933594zm0 0"/></svg>