<svg height="392pt" viewBox="0 -2 392.04875 392" width="392pt" xmlns="http://www.w3.org/2000/svg"><path d="m6 387.410156c1.617188.003906 3.164062-.648437 4.292969-1.804687l191.558593-195.980469 12.691407 58.601562c.546875 2.515626 2.640625 4.40625 5.199219 4.691407.222656.023437.441406.039062.664062.039062 2.335938-.003906 4.460938-1.359375 5.441406-3.480469l28.253906-60.96875 64.8125 6.277344c2.527344.246094 4.933594-1.125 6.011719-3.421875 1.078125-2.300781.59375-5.027343-1.210937-6.8125l-47.289063-46.832031 25.921875-62.324219c.984375-2.359375.359375-5.085937-1.550781-6.785156-1.90625-1.703125-4.6875-2.003906-6.917969-.757813l-57.265625 32.023438-48.875-44.59375c-1.894531-1.730469-4.683593-2.0625-6.933593-.824219-2.25 1.234375-3.460938 3.765625-3.019532 6.296875l11.730469 66.753906-56.179687 34.550782c-2.15625 1.324218-3.25 3.863281-2.730469 6.339844.519531 2.476562 2.535156 4.363281 5.042969 4.714843l57.683593 8.058594-191.625 196.046875c-1.6874998 1.726562-2.171875 4.296875-1.238281 6.519531.9375 2.226563 3.117188 3.671875 5.53125 3.671875zm0 0"/><path d="m301.359375 277.085938c2.199219-.003907 4.222656-1.210938 5.273437-3.144532 1.046876-1.9375.949219-4.289062-.25-6.132812l-23.09375-35.445313c-1.164062-1.816406-3.207031-2.867187-5.359374-2.757812-2.148438.113281-4.078126 1.367187-5.046876 3.289062-.972656 1.925781-.835937 4.21875.351563 6.015625l23.09375 35.449219c1.105469 1.699219 3 2.726563 5.03125 2.726563zm0 0"/><path d="m225.625 6.023438v41.5625c0 3.3125 2.6875 6 6 6s6-2.6875 6-6v-41.5625c0-3.3125-2.6875-6.0000005-6-6.0000005s-6 2.6875005-6 6.0000005zm0 0"/><path d="m384.476562 103.695312-54.167968 14.230469c-2.089844.53125-3.734375 2.140625-4.308594 4.21875s.011719 4.304688 1.53125 5.832031c1.523438 1.527344 3.746094 2.121094 5.828125 1.554688l54.164063-14.230469c2.089843-.527343 3.734374-2.136719 4.308593-4.214843.574219-2.078126-.011719-4.304688-1.53125-5.832032s-3.746093-2.121094-5.824219-1.558594zm0 0"/><path d="m93.3125 91.640625c-3.265625-.5625-6.367188 1.628906-6.929688 4.894531s1.628907 6.371094 4.894532 6.933594l40.105468 6.910156c.339844.058594.683594.089844 1.027344.089844 3.117188 0 5.71875-2.386719 5.980469-5.492188.265625-3.109374-1.894531-5.902343-4.96875-6.425781zm0 0"/></svg>