<svg xmlns="http://www.w3.org/2000/svg" viewBox="0 0 64 64"><g id="Layer_12" data-name="Layer 12"><path d="M49.28,27.25a1.5,1.5,0,0,0-1.5,1.5V46a1.32,1.32,0,0,1-1.32,1.32H18A1.32,1.32,0,0,1,16.69,46V17.54A1.32,1.32,0,0,1,18,16.22H35.24a1.5,1.5,0,0,0,0-3H18a4.33,4.33,0,0,0-4.32,4.32V46A4.33,4.33,0,0,0,18,50.31H46.46A4.33,4.33,0,0,0,50.78,46V28.75A1.5,1.5,0,0,0,49.28,27.25Z"/><path d="M51.68,12.32a6.23,6.23,0,0,0-8.79,0L31.56,23.65a1.49,1.49,0,0,0-.36.59l-3.31,10a1.5,1.5,0,0,0,1.89,1.89l10-3.31a1.49,1.49,0,0,0,.59-.36L51.68,21.11A6.23,6.23,0,0,0,51.68,12.32ZM38.48,30.07l-6.81,2.26,2.26-6.81,8.16-8.15,4.54,4.54ZM49.56,19l-.81.8-4.54-4.54.8-.81A3.22,3.22,0,0,1,49.56,19Z"/></g></svg>