<?xml version="1.0" encoding="iso-8859-1"?>
<!-- Generator: Adobe Illustrator 16.0.0, SVG Export Plug-In . SVG Version: 6.00 Build 0)  -->
<!DOCTYPE svg PUBLIC "-//W3C//DTD SVG 1.1//EN" "http://www.w3.org/Graphics/SVG/1.1/DTD/svg11.dtd">
<svg version="1.1" id="Capa_1" xmlns="http://www.w3.org/2000/svg" xmlns:xlink="http://www.w3.org/1999/xlink" x="0px" y="0px"
	 width="159.436px" height="159.436px" viewBox="0 0 159.436 159.436" style="enable-background:new 0 0 159.436 159.436;"
	 xml:space="preserve">
<g>
	<path d="M157.818,54.936c-1.45-1.097-3.448-1.087-4.878,0.016l-41.966,32.028L83.431,24.753c-1.308-2.933-6.109-2.933-7.417,0
		L48.149,87.707L6.55,54.988c-1.432-1.129-3.446-1.16-4.91-0.074c-1.469,1.084-2.025,3.017-1.366,4.72l28.901,74.664
		c0.604,1.561,2.104,2.584,3.773,2.584h93.54c1.683,0,3.169-1.018,3.775-2.584l28.898-74.664
		C159.817,57.941,159.268,56.019,157.818,54.936z M123.715,128.782h-87.99L13.157,70.486l34.085,26.797
		c0.983,0.78,2.257,1.044,3.483,0.76c1.216-0.312,2.22-1.149,2.729-2.3l26.27-59.342l25.919,58.557
		c0.512,1.134,1.497,1.978,2.7,2.283c1.218,0.301,2.479,0.042,3.475-0.701l34.626-26.438L123.715,128.782z"/>
</g>
<g>
</g>
<g>
</g>
<g>
</g>
<g>
</g>
<g>
</g>
<g>
</g>
<g>
</g>
<g>
</g>
<g>
</g>
<g>
</g>
<g>
</g>
<g>
</g>
<g>
</g>
<g>
</g>
<g>
</g>
</svg>
