<svg height="512" viewBox="0 0 56 56" width="512" xmlns="http://www.w3.org/2000/svg"><g id="037---Princess"><path id="Shape" d="m13 10h30v-1.987h-5.587c-.5300181.00147645-1.038682-.2087569-1.413-.584l-2-1.994-1.48 1.473c-.4100267.40909901-.9772713.62034956-1.555011.57910984s-1.1092274-.33091903-1.456989-.79410984c-.064-.087.012.039-1.509-2.676-1.538 2.745-1.445 2.589-1.509 2.676-.3477616.46319081-.8792493.75287012-1.456989.79410984s-1.1449843-.17001083-1.555011-.57910984l-1.478-1.472-2 1.993c-.3740736.37499675-.8823283.58520972-1.412.584h-5.588z"/><path id="Shape" d="m53.6 43.33-12.879-2.3c-.61 2.655-2.7 7.6-9.7 8.719 1.2507592 1.8796907 1.3125803 4.3101527.159 6.251h12.82v-5c0-.5522847.4477153-1 1-1s1 .4477153 1 1v.5l9.385-3.913c.3688941-.1564372.6102646-.5163343.615-.917v-.4c-.0043369-1.4241531-1.0055471-2.6506355-2.4-2.94z"/><path id="Shape" d="m3 56h7v-2.333l-7-2.919z"/><path id="Shape" d="m10.778 39.806 9.222-1.644v-5.494c-1.5079169-2.2666385-2.727955-4.7120892-3.632-7.28-.489-1.378-.368-1.927-.368-7.025-.0083155-.6883321.3113568-1.3395576.861-1.754.9-.631 3.612-2.664 6.067-4.609h-8.77c-.216 1.508-.158.084-.158 22 0 .5522847-.4477153 1-1 1s-1-.4477153-1-1v-2.563c-1.5825761.6831306-2.69794804 2.1377748-2.94699637 3.8434094-.24904834 1.7056346.40382406 3.418469 1.72499637 4.5255906z"/><path id="Shape" d="m46 56h7v-5.252l-7 2.919z"/><path id="Shape" d="m18.252 24.716c.6959619 1.9426127 1.5689658 3.8171609 2.608 5.6 4.5 7.574 9.771 7.585 14.281 0 1.0389141-1.7829018 1.9119128-3.6574388 2.608-5.6.1656857-.4634227.2505854-.9518495.251-1.444 0-4.513.057-4.959-.043-5.05-1.274-.893-5.332-3.958-8.068-6.222h-3.778c-4.835 4-8.186 6.235-8.086 6.235-.0141544.0413208-.0225663.08439-.025.128 0 5.294-.081 5.414.252 6.353z"/><path id="Shape" d="m15.279 41.035-12.9 2.3c-1.38533237.2958423-2.37631837 1.5184333-2.379 2.935v.4c.00464806.400986.24654153.7610774.616.917l9.384 3.913v-.5c0-.5522847.4477153-1 1-1s1 .4477153 1 1v5h12.82c-1.1502771-1.9403799-1.0869175-4.3682573.163-6.246-7.001-1.122-9.094-6.064-9.704-8.719z"/><path id="Shape" d="m20.587 4.019c.7807702-.77943189 2.0452298-.77943189 2.826 0l1.472 1.467c1.493-2.664 1.453-2.6 1.515-2.688.4049311-.49989016 1.0209486-.78082473 1.663891-.75881692.6429425.02200781 1.238308.34440781 1.608109.87081692l1.443 2.576 1.472-1.467c.7807702-.77943189 2.0452298-.77943189 2.826 0l2 1.994h2.071c-2.6121591-3.76528645-6.9038417-6.01126624-11.4865-6.01126624s-8.8743409 2.24597979-11.4865 6.01126624h2.076z"/><path id="Shape" d="m44 31.437v2.563c0 .5522847-.4477153 1-1 1s-1-.4477153-1-1c0-21.708.062-20.464-.158-22h-8.77c2.454 1.945 5.164 3.975 6.052 4.6.5572332.4136801.8828642 1.069031.876 1.763 0 5.126.118 5.658-.367 7.022-.9039601 2.5693867-2.1243492 5.0162114-3.633 7.284v5.493l9.222 1.644c1.3211723-1.1071216 1.9740447-2.819956 1.7249964-4.5255906-.2490484-1.7056346-1.3644203-3.1602788-2.9469964-3.8434094z"/><ellipse id="Oval" cx="28" cy="53" rx="2" ry="3"/><path id="Shape" d="m22 35.126c0 .967.009 3.83.01 3.866.048 1.175.62 5.008 5.99 5.008s5.942-3.833 5.99-5.008c.0750264-1.287484.0783649-2.5781451.01-3.866-3.73 3.785-8.165 3.891-12 0z"/><path id="Shape" d="m28 48c7.867 0 10.113-4.559 10.753-7.316l-2.909-.518c-.406 1.991-1.951 5.834-7.844 5.834s-7.44-3.848-7.845-5.834l-2.908.518c.64 2.757 2.886 7.316 10.753 7.316z"/></g></svg>