<svg height="512" viewBox="0 0 60 60" width="512" xmlns="http://www.w3.org/2000/svg"><path id="Shape" d="m55.976 43.366-6.405-1.142c1.3902022-1.8257302 1.7945093-4.2180221 1.0814917-6.399205s-2.4523146-3.8727415-4.6524917-4.524795c0-16.784.06-15.839-.166-17.489.7082938-.3249548 1.1633433-1.0317255 1.166-1.811v-1.991c0-1.1045695-.8954305-2-2-2h-1.15c-2.8537179-4.95220764-8.1344015-8.00391455-13.85-8.00391455s-10.9962821 3.05170691-13.85 8.00391455h-1.15c-1.1045695 0-2 .8954305-2 2v1.991c.0030456.7789121.4580336 1.4851971 1.166 1.81-.228 1.667-.166.62-.166 17.49-2.2001444.6517691-3.9394931 2.3431381-4.65253481 4.5241951s-.30871024 4.5732483 1.08153481 6.3988049l-6.429 1.147c-2.32429937.4819261-3.99315511 2.5262744-4 4.9v.4c-.00020536 1.2096149.72842405 2.3001908 1.846 2.763l1.154.481v6.086c0 1.1045695.8954305 2 2 2h50c1.1045695 0 2-.8954305 2-2v-6.086l1.155-.482c1.1170266-.462763 1.8452387-1.5529103 1.845-2.762v-.4c-.0092354-2.3818846-1.6897547-4.4299131-4.024-4.904zm-9.976-7.366v-2.563c1.5825761.6831306 2.697948 2.1377748 2.9469964 3.8434094.2490483 1.7056346-.4038241 3.418469-1.7249964 4.5255906l-9.222-1.644v-5.493c1.5086508-2.2677886 2.7290399-4.7146133 3.633-7.284.488-1.374.367-1.927.367-7.022.0071854-.6943201-.3184799-1.3501119-.876-1.764-.888-.624-3.6-2.654-6.052-4.6h8.77c.216 1.508.158.084.158 22 0 .5522847.4477153 1 1 1s1-.4477153 1-1zm-17.889-22h3.778c2.736 2.264 6.794 5.329 8.068 6.222.0307383.0403432.0459946.0903695.043.141 0 4.876.1 5.362-.251 6.349-1.578 4.398-5.101 11.288-9.749 11.288s-8.179-6.916-9.748-11.284c-.352-1.005-.252-1.397-.252-6.353-.0011539-.0439837.0073811-.0876829.025-.128.118 0 5.417-4.028 8.086-6.235zm7.889 23.126c0 .967-.009 3.83-.01 3.866-.048 1.175-.62 5.008-5.99 5.008s-5.942-3.833-5.99-5.008c-.0750264-1.287484-.0783649-2.5781451-.01-3.866 3.73 3.785 8.165 3.891 12 0zm-6 10.874c5.893 0 7.438-3.843 7.844-5.834l2.909.518c-.64 2.757-2.886 7.316-10.753 7.316s-10.113-4.559-10.753-7.316l2.908-.518c.405 1.986 1.945 5.834 7.845 5.834zm11.484-39.987h-2.071l-2-1.994c-.7807702-.77943189-2.0452298-.77943189-2.826 0l-1.472 1.467c-1.49-2.659-1.453-2.6-1.515-2.688-.4049311-.49989016-1.0209486-.78082473-1.663891-.75881692-.6429425.02200781-1.238308.34440781-1.608109.87081692l-1.443 2.576-1.472-1.467c-.7807702-.77943189-2.0452298-.77943189-2.826 0l-2 1.994h-2.076c2.6113046-3.76654296 6.9032962-6.01353048 11.4865-6.01353048s8.8751954 2.24698752 11.4865 6.01353048zm-26.484 2h5.587c.5300181.0014764 1.038682-.2087569 1.413-.584l2-1.993 1.478 1.472c.4100267.40909901.9772713.62034956 1.555011.57910984s1.1092274-.33091903 1.456989-.79410984c.064-.087-.012.039 1.509-2.676 1.538 2.745 1.445 2.589 1.509 2.676.3477616.46319081.8792493.75287012 1.456989.79410984s1.1449843-.17001083 1.555011-.57910984l1.48-1.473 2 1.994c.3740736.37499675.8823283.5852097 1.412.584h5.588v1.987h-30zm-1 23.424v2.563c0 .5522847.4477153 1 1 1s1-.4477153 1-1c0-21.708-.062-20.464.158-22h8.77c-2.455 1.945-5.168 3.978-6.067 4.609-.5496432.4144424-.8693155 1.0656679-.861 1.754 0 5.123-.119 5.655.368 7.025.9036335 2.5680851 2.1236963 5.0135855 3.632 7.28v5.494l-9.222 1.644c-1.3211723-1.1071216-1.9740447-2.819956-1.7249964-4.5255906.2490484-1.7056346 1.3644203-3.1602788 2.9469964-3.8434094zm-2 24.563h-7v-5.252l7 2.919zm14.82 0h-12.82v-5c0-.5522847-.4477153-1-1-1s-1 .4477153-1 1v.5l-9.384-3.913c-.36945847-.1559226-.61135194-.516014-.616-.917v-.4c.00190699-1.4160326.99149389-2.6388555 2.376-2.936l12.9-2.3c.61 2.655 2.7 7.6 9.7 8.719-1.2481551 1.879335-1.3087964 4.3077085-.156 6.247zm3.18 0c-1.084 0-2-1.374-2-3s.916-3 2-3 2 1.374 2 3-.916 3-2 3zm25 0h-7v-2.333l7-2.919zm3-9.33c-.0047354.4006657-.2461059.7605628-.615.917l-9.385 3.913v-.5c0-.5522847-.4477153-1-1-1s-1 .4477153-1 1v5h-12.82c1.1502771-1.9403799 1.0869175-4.3682573-.163-6.246 7-1.122 9.094-6.064 9.7-8.719l12.883 2.295c1.3944529.2893645 2.3956631 1.5158469 2.4 2.94z"/></svg>